<svg width="257" height="68" viewBox="0 0 257 68" fill="none" xmlns="http://www.w3.org/2000/svg">
<path d="M43.543 18.0257L44.743 17.7257V4.92568L43.543 4.62568V4.32568H48.643C51.0296 4.32568 52.8563 4.93902 54.123 6.16568C55.403 7.39235 56.043 9.11235 56.043 11.3257C56.043 13.539 55.403 15.259 54.123 16.4857C52.8563 17.7124 51.0296 18.3257 48.643 18.3257H43.543V18.0257ZM48.643 17.8257C49.883 17.8257 50.843 17.3257 51.523 16.3257C52.203 15.3124 52.543 13.6457 52.543 11.3257C52.543 9.00568 52.203 7.34568 51.523 6.34568C50.843 5.33235 49.883 4.82568 48.643 4.82568H48.043V17.8257H48.643ZM57.8398 18.0257L59.0398 17.7257V4.92568L57.8398 4.62568V4.32568H68.5398V7.92568H67.9398C67.6865 7.72568 67.4665 7.47235 67.2798 7.16568C66.8532 6.44568 66.6398 5.66568 66.6398 4.82568H62.3398V11.1257H64.6398C64.7332 10.619 64.9065 10.1457 65.1598 9.70568C65.2665 9.50568 65.3932 9.31235 65.5398 9.12568H66.1398V13.6257H65.5398C65.3932 13.439 65.2665 13.2457 65.1598 13.0457C64.9065 12.6057 64.7332 12.1323 64.6398 11.6257H62.3398V17.8257H67.0398C67.0398 16.9857 67.2532 16.2057 67.6798 15.4857C67.8665 15.179 68.0865 14.9257 68.3398 14.7257H68.9398V18.3257H57.8398V18.0257ZM75.6305 18.6257C74.6838 18.6257 73.7971 18.4124 72.9705 17.9857C72.5971 17.799 72.2838 17.579 72.0305 17.3257C71.8438 17.6324 71.6105 17.9057 71.3305 18.1457C71.0905 18.319 70.9571 18.4124 70.9305 18.4257H70.4305V14.6257H71.2305C71.4305 15.279 71.7105 15.8657 72.0705 16.3857C72.8838 17.5457 73.9371 18.1257 75.2305 18.1257C75.9905 18.1257 76.5971 17.899 77.0505 17.4457C77.5038 16.9924 77.7305 16.3857 77.7305 15.6257C77.7305 15.1857 77.5971 14.7924 77.3305 14.4457C77.0771 14.099 76.7571 13.7924 76.3705 13.5257C75.9838 13.259 75.4438 12.9257 74.7505 12.5257C73.8705 12.0323 73.1571 11.5857 72.6105 11.1857C72.0638 10.7857 71.5971 10.2857 71.2105 9.68568C70.8238 9.07235 70.6305 8.35235 70.6305 7.52568C70.6305 6.87235 70.8105 6.28568 71.1705 5.76568C71.5438 5.23235 72.0971 4.81235 72.8305 4.50568C73.5638 4.18568 74.4638 4.02568 75.5305 4.02568C76.3038 4.02568 77.0771 4.24568 77.8505 4.68568C78.1438 4.84568 78.4371 5.05902 78.7305 5.32568C78.9571 4.97902 79.1905 4.70568 79.4305 4.50568C79.6705 4.33235 79.8038 4.23902 79.8305 4.22568H80.3305V8.02568H79.5305C79.3571 7.38568 79.0971 6.80568 78.7505 6.28568C78.4305 5.77902 78.0305 5.35902 77.5505 5.02568C77.0838 4.69235 76.5438 4.52568 75.9305 4.52568C75.4105 4.52568 74.9638 4.73235 74.5905 5.14568C74.2171 5.55902 74.0305 6.08568 74.0305 6.72568C74.0305 7.21902 74.1705 7.66568 74.4505 8.06568C74.7438 8.45235 75.0971 8.79235 75.5105 9.08568C75.9371 9.37902 76.5105 9.73235 77.2305 10.1457C78.0705 10.6257 78.7505 11.0523 79.2705 11.4257C79.7905 11.799 80.2305 12.2657 80.5905 12.8257C80.9505 13.3724 81.1305 14.0057 81.1305 14.7257C81.1305 15.4457 80.9238 16.1057 80.5105 16.7057C80.0971 17.2924 79.4771 17.759 78.6505 18.1057C77.8238 18.4524 76.8171 18.6257 75.6305 18.6257ZM82.625 18.3257V18.0257L83.825 17.7257V4.92568L82.625 4.62568V4.32568H88.325V4.62568L87.125 4.92568V17.7257L88.325 18.0257V18.3257H82.625ZM95.8203 18.6257C94.807 18.6257 93.8736 18.339 93.0203 17.7657C92.167 17.1924 91.487 16.359 90.9803 15.2657C90.4736 14.159 90.2203 12.8457 90.2203 11.3257C90.2203 9.79235 90.4803 8.47902 91.0003 7.38568C91.5336 6.27902 92.2736 5.44568 93.2203 4.88568C94.1803 4.31235 95.287 4.02568 96.5403 4.02568C97.3003 4.02568 98.067 4.24568 98.8403 4.68568C99.1336 4.84568 99.427 5.05902 99.7203 5.32568C99.947 4.97902 100.18 4.70568 100.42 4.50568C100.66 4.33235 100.794 4.23902 100.82 4.22568H101.32V8.02568H100.52C100.347 7.38568 100.087 6.80568 99.7403 6.28568C99.4203 5.77902 99.0203 5.35902 98.5403 5.02568C98.0736 4.69235 97.5336 4.52568 96.9203 4.52568C96.0003 4.52568 95.2336 5.05902 94.6203 6.12568C94.0203 7.19235 93.7203 8.92568 93.7203 11.3257C93.7203 13.7257 93.987 15.4257 94.5203 16.4257C95.067 17.4257 95.767 17.9257 96.6203 17.9257C97.1136 17.9257 97.5603 17.659 97.9603 17.1257C98.107 16.9257 98.2603 16.659 98.4203 16.3257V11.7257L97.2203 11.4257V11.1257H102.92V11.4257L101.72 11.7257V18.4257H101.42C100.447 18.4257 99.707 18.159 99.2003 17.6257C98.9736 17.3857 98.8136 17.119 98.7203 16.8257C98.5336 17.159 98.3136 17.459 98.0603 17.7257C97.4603 18.3257 96.7136 18.6257 95.8203 18.6257ZM106.124 7.72568V17.4257L107.724 18.0257V18.3257H103.924V18.0257L105.524 17.4257V5.02568L104.124 4.62568V4.32568H106.224C106.931 4.32568 107.484 4.45235 107.884 4.70568C108.284 4.95902 108.664 5.29902 109.024 5.72568L115.424 13.2257V5.22568L113.824 4.62568V4.32568H117.624V4.62568L116.024 5.22568V18.6257H115.424L106.124 7.72568ZM124.734 18.0257L125.934 17.7257V4.92568L124.734 4.62568V4.32568H130.334C132.548 4.32568 134.134 4.69235 135.094 5.42568C136.054 6.14568 136.534 7.21235 136.534 8.62568C136.534 10.039 136.054 11.1124 135.094 11.8457C134.134 12.5657 132.548 12.9257 130.334 12.9257H129.234V17.7257L130.434 18.0257V18.3257H124.734V18.0257ZM130.334 12.4257C131.174 12.4257 131.848 12.1057 132.354 11.4657C132.874 10.8257 133.134 9.87902 133.134 8.62568C133.134 7.38568 132.874 6.44568 132.354 5.80568C131.848 5.15235 131.174 4.82568 130.334 4.82568H129.234V12.4257H130.334ZM138.23 18.0257L139.43 17.7257V4.92568L138.23 4.62568V4.32568H143.53C145.797 4.32568 147.43 4.67235 148.43 5.36568C149.43 6.04568 149.93 6.99902 149.93 8.22568C149.93 9.05235 149.71 9.72568 149.27 10.2457C148.83 10.7523 148.264 11.1323 147.57 11.3857C146.837 11.6657 146.057 11.8124 145.23 11.8257V11.9257C145.724 11.9523 146.157 12.0257 146.53 12.1457C147.464 12.439 148.097 12.9657 148.43 13.7257L150.23 17.7257L151.23 18.0257V18.3257H148.43C147.337 18.3257 146.537 17.759 146.03 16.6257L144.03 12.1257H142.73V17.7257L144.13 18.0257V18.3257H138.23V18.0257ZM143.53 11.6257C144.464 11.6257 145.197 11.3324 145.73 10.7457C146.264 10.159 146.53 9.31902 146.53 8.22568C146.53 7.13235 146.264 6.29235 145.73 5.70568C145.197 5.11902 144.464 4.82568 143.53 4.82568H142.73V11.6257H143.53ZM158.439 18.6257C157.132 18.6257 155.986 18.3457 154.999 17.7857C154.026 17.2124 153.272 16.379 152.739 15.2857C152.206 14.1924 151.939 12.8723 151.939 11.3257C151.939 9.77902 152.206 8.45902 152.739 7.36568C153.272 6.27235 154.026 5.44568 154.999 4.88568C155.986 4.31235 157.132 4.02568 158.439 4.02568C159.746 4.02568 160.886 4.31235 161.859 4.88568C162.846 5.44568 163.606 6.27235 164.139 7.36568C164.672 8.45902 164.939 9.77902 164.939 11.3257C164.939 12.8723 164.672 14.1924 164.139 15.2857C163.606 16.379 162.846 17.2124 161.859 17.7857C160.886 18.3457 159.746 18.6257 158.439 18.6257ZM158.439 18.2257C158.959 18.2257 159.439 18.0057 159.879 17.5657C160.332 17.1257 160.706 16.3924 160.999 15.3657C161.292 14.339 161.439 12.9923 161.439 11.3257C161.439 9.65902 161.292 8.31235 160.999 7.28568C160.706 6.25902 160.332 5.52568 159.879 5.08568C159.439 4.64568 158.959 4.42568 158.439 4.42568C157.919 4.42568 157.432 4.64568 156.979 5.08568C156.539 5.52568 156.172 6.25902 155.879 7.28568C155.586 8.31235 155.439 9.65902 155.439 11.3257C155.439 12.9923 155.586 14.339 155.879 15.3657C156.172 16.3924 156.539 17.1257 156.979 17.5657C157.432 18.0057 157.919 18.2257 158.439 18.2257ZM169.153 18.6257C167.926 18.6257 167 18.4124 166.373 17.9857C165.76 17.559 165.453 17.039 165.453 16.4257C165.453 15.9724 165.586 15.6124 165.853 15.3457C166.133 15.0657 166.5 14.9257 166.953 14.9257C167.06 14.9257 167.166 14.939 167.273 14.9657C167.38 14.979 167.453 14.9857 167.493 14.9857L167.753 15.0257V18.0257C167.846 18.079 167.94 18.1124 168.033 18.1257C168.26 18.1924 168.5 18.2257 168.753 18.2257C170.353 18.2257 171.153 16.9257 171.153 14.3257V4.92568L169.953 4.62568V4.32568H175.653V4.62568L174.453 4.92568V14.3257C174.453 15.7124 174.02 16.779 173.153 17.5257C172.286 18.259 170.953 18.6257 169.153 18.6257ZM177.449 18.0257L178.649 17.7257V4.92568L177.449 4.62568V4.32568H188.149V7.92568H187.549C187.296 7.72568 187.076 7.47235 186.889 7.16568C186.463 6.44568 186.249 5.66568 186.249 4.82568H181.949V11.1257H184.249C184.343 10.619 184.516 10.1457 184.769 9.70568C184.876 9.50568 185.003 9.31235 185.149 9.12568H185.749V13.6257H185.149C185.003 13.439 184.876 13.2457 184.769 13.0457C184.516 12.6057 184.343 12.1323 184.249 11.6257H181.949V17.8257H186.649C186.649 16.9857 186.863 16.2057 187.289 15.4857C187.476 15.179 187.696 14.9257 187.949 14.7257H188.549V18.3257H177.449V18.0257ZM196.845 18.6257C194.711 18.6257 193.045 17.9924 191.845 16.7257C190.645 15.459 190.045 13.659 190.045 11.3257C190.045 9.79235 190.305 8.47902 190.825 7.38568C191.358 6.27902 192.098 5.44568 193.045 4.88568C194.005 4.31235 195.111 4.02568 196.365 4.02568C197.125 4.02568 197.891 4.24568 198.665 4.68568C198.958 4.84568 199.251 5.05902 199.545 5.32568C199.771 4.97902 200.005 4.70568 200.245 4.50568C200.485 4.33235 200.618 4.23902 200.645 4.22568H201.145V8.02568H200.345C200.171 7.38568 199.911 6.80568 199.565 6.28568C199.245 5.77902 198.845 5.35902 198.365 5.02568C197.898 4.69235 197.358 4.52568 196.745 4.52568C195.825 4.52568 195.058 5.05902 194.445 6.12568C193.845 7.19235 193.545 8.92568 193.545 11.3257C193.545 13.7657 193.871 15.5124 194.525 16.5657C195.191 17.6057 196.098 18.1257 197.245 18.1257C197.871 18.1257 198.465 17.9524 199.025 17.6057C199.598 17.2457 200.058 16.7724 200.405 16.1857C200.765 15.599 200.945 14.979 200.945 14.3257H201.445C201.445 15.0857 201.238 15.799 200.825 16.4657C200.425 17.119 199.871 17.6457 199.165 18.0457C198.471 18.4324 197.698 18.6257 196.845 18.6257ZM205.262 18.0257L206.462 17.7257V4.82568H204.162C204.162 5.63902 203.942 6.41902 203.502 7.16568C203.315 7.47235 203.102 7.72568 202.862 7.92568H202.262V4.32568H213.962V7.92568H213.362C213.108 7.72568 212.888 7.47235 212.702 7.16568C212.275 6.44568 212.062 5.66568 212.062 4.82568H209.762V17.7257L210.962 18.0257V18.3257H205.262V18.0257Z" fill="#181818"/>
<rect x="73.0005" y="52.2129" width="32" height="1.54334" rx="0.771672" fill="#E3B873"/>
<rect x="155" y="52.2129" width="32" height="1.54334" rx="0.771672" fill="#E3B873"/>
<path d="M137.892 61.0529C137.146 61.7529 137.146 62.9196 137.892 63.6663C138.266 64.0396 138.732 64.2263 139.199 64.2263C139.666 64.2263 140.132 64.0396 140.506 63.6663C141.252 62.9663 141.252 61.7996 140.506 61.0529C139.806 60.3063 138.639 60.3063 137.892 61.0529ZM139.852 63.0596C139.479 63.4329 138.919 63.4329 138.546 63.0596C138.172 62.6862 138.172 62.1262 138.546 61.7529C138.732 61.5663 138.966 61.4729 139.199 61.4729C139.432 61.4729 139.666 61.5663 139.852 61.7529C140.226 62.1263 140.226 62.6863 139.852 63.0596Z" fill="#E3B873"/>
<path d="M143.68 61.6129L135.28 53.2129L138.593 49.8995L138.593 49.8995L140.553 47.9395L140.553 47.9395L143.4 45.0929C144.193 44.2995 144.193 42.9929 143.4 42.1995L141.02 39.8195C140.646 39.4462 140.133 39.2129 139.573 39.2129C139.013 39.2129 138.5 39.4462 138.126 39.8195L135.28 42.6662L133.32 44.6262L130.006 47.9395L121.7 39.6329C121.186 39.1195 120.253 39.1195 119.74 39.6329L116.426 42.9462C115.866 43.4596 115.866 44.3462 116.426 44.9062L117.406 45.8862L120.066 48.5462L122.68 51.1595C122.68 51.1595 122.68 51.1595 122.68 51.1596L124.733 53.2129L117.242 60.7043C117.102 60.7659 117.027 60.8919 116.986 61.0529L116.006 66.6529C116.006 66.8395 116.053 66.9795 116.146 67.0729C116.24 67.1662 116.333 67.2129 116.473 67.2129C116.52 67.2129 116.52 67.2129 116.566 67.2129L121.95 66.2176C121.987 66.2274 122.027 66.2329 122.073 66.2329C122.213 66.2329 122.353 66.1862 122.4 66.0929L130.006 58.4862L130.613 59.0929C130.613 59.0929 130.613 59.0929 130.613 59.0929L130.613 59.093L131.92 60.3996C131.92 60.3996 131.92 60.3996 131.92 60.3996L131.92 60.3997L138.406 66.8863C138.64 67.1196 138.92 67.2129 139.2 67.2129C139.48 67.2129 139.76 67.1196 139.946 66.8863L143.68 63.1529C144.1 62.7329 144.1 62.0329 143.68 61.6129ZM122.073 65.0662L120.44 63.4334L135.956 47.9624L137.566 49.5729L122.073 65.0662ZM138.78 40.4729C139.2 40.0529 139.946 40.0529 140.366 40.4729L142.746 42.8529C143.166 43.2729 143.166 44.0195 142.746 44.4395L140.226 46.9595L136.26 42.9929L138.78 40.4729ZM135.606 43.6462L137.59 45.6296L139.573 47.6129L138.266 48.9195L134.3 44.9529L135.606 43.6462ZM124.99 52.1629L125.993 51.1595C126.18 50.9729 126.18 50.6929 125.993 50.5062C125.806 50.3195 125.526 50.3195 125.34 50.5062L124.336 51.5095L123.66 50.8329L125.293 49.1995C125.48 49.0129 125.48 48.7329 125.293 48.5462C125.106 48.3595 124.826 48.3595 124.64 48.5462L123.006 50.1795L122.353 49.5262L123.333 48.5462C123.52 48.3595 123.52 48.0795 123.333 47.8928C123.146 47.7061 122.866 47.7062 122.68 47.8928L121.7 48.8728L121.046 48.2195L122.68 46.5861C122.866 46.3995 122.866 46.1195 122.68 45.9328C122.493 45.7461 122.213 45.7461 122.026 45.9328L120.393 47.5662L119.693 46.8662L120.673 45.8862C120.86 45.6996 120.86 45.4196 120.673 45.2329C120.486 45.0462 120.206 45.0462 120.02 45.2329L119.04 46.2129L118.386 45.5595L120.02 43.9262C120.206 43.7395 120.206 43.4595 120.02 43.2728C119.833 43.0861 119.553 43.0862 119.366 43.2728L117.733 44.9062L117.08 44.2529C116.893 44.0662 116.893 43.7862 117.08 43.5995L120.393 40.2862C120.486 40.1929 120.58 40.1462 120.72 40.1462C120.813 40.1462 120.953 40.1929 121.046 40.2862L129.353 48.5929L125.386 52.5595L124.99 52.1629ZM133.646 45.6529L135.279 47.2857L119.763 62.7567L118.153 61.1462L133.646 45.6529ZM117.78 62.0795L119.311 63.6106C119.334 63.6639 119.368 63.7145 119.413 63.7595L121.1 65.4464L117.08 66.1395L117.78 62.0795ZM143.026 62.4995L139.293 66.2329C139.246 66.2795 139.106 66.2795 139.06 66.2329L134.23 61.4029L135.886 59.7462C136.073 59.5596 136.073 59.2796 135.886 59.0929C135.7 58.9062 135.42 58.9062 135.233 59.0929L133.576 60.7495L132.9 60.0729L133.88 59.0929C134.066 58.9062 134.066 58.6262 133.88 58.4395C133.693 58.2529 133.413 58.2529 133.226 58.4395L132.246 59.4195L131.593 58.7662L133.226 57.1328C133.413 56.9462 133.413 56.6662 133.226 56.4795C133.04 56.2928 132.76 56.2928 132.573 56.4795L130.94 58.1129L130.66 57.8329L134.626 53.8662L143.026 62.2662C143.073 62.3129 143.073 62.4529 143.026 62.4995Z" fill="#E3B873"/>
</svg>
