<svg width="462" height="113" viewBox="0 0 462 113" fill="none" xmlns="http://www.w3.org/2000/svg">
<g filter="url(#filter0_d)">
<path d="M121.62 24.6024V29.7624H127.26V24.6024H129.86V37.9424H127.26V32.0024H121.62V37.9424H119.02V24.6024H121.62ZM138.807 35.1624L141.047 35.5224C140.953 35.7624 140.827 36.0024 140.667 36.2424C140.52 36.469 140.287 36.7557 139.967 37.1024C139.647 37.4357 139.213 37.709 138.667 37.9224C138.12 38.1224 137.493 38.2224 136.787 38.2224C135.427 38.2224 134.32 37.8157 133.467 37.0024C132.56 36.149 132.107 35.0224 132.107 33.6224C132.107 32.2357 132.547 31.1024 133.427 30.2224C134.253 29.409 135.34 29.0024 136.687 29.0024C138.153 29.0024 139.28 29.4757 140.067 30.4224C140.76 31.249 141.107 32.3824 141.107 33.8224V34.0224H134.627C134.627 34.609 134.767 35.0957 135.047 35.4824C135.447 36.029 136.027 36.3024 136.787 36.3024C137.693 36.3024 138.367 35.9224 138.807 35.1624ZM134.707 32.4624H138.807C138.713 31.9024 138.467 31.4757 138.067 31.1824C137.68 30.8757 137.24 30.7224 136.747 30.7224C136.267 30.7224 135.827 30.8757 135.427 31.1824C135.04 31.489 134.8 31.9157 134.707 32.4624ZM142.996 22.9624H145.436V37.9424H142.996V22.9624ZM150.202 36.8224V42.5824H147.762V29.2824H150.202V30.4024C150.868 29.469 151.808 29.0024 153.022 29.0024C154.288 29.0024 155.315 29.4357 156.102 30.3024C156.888 31.169 157.282 32.269 157.282 33.6024C157.282 34.9357 156.875 36.0424 156.062 36.9224C155.262 37.789 154.228 38.2224 152.962 38.2224C151.802 38.2224 150.882 37.7557 150.202 36.8224ZM154.082 31.8624C153.628 31.3957 153.055 31.1624 152.362 31.1624C151.668 31.1624 151.095 31.3957 150.642 31.8624C150.188 32.329 149.962 32.909 149.962 33.6024C149.962 34.2957 150.188 34.8824 150.642 35.3624C151.095 35.829 151.668 36.0624 152.362 36.0624C153.055 36.0624 153.628 35.829 154.082 35.3624C154.535 34.8824 154.762 34.2957 154.762 33.6024C154.762 32.909 154.535 32.329 154.082 31.8624ZM169.756 29.9224L168.556 31.3424C168.142 30.9557 167.669 30.7624 167.136 30.7624C166.842 30.7624 166.609 30.829 166.436 30.9624C166.276 31.0824 166.196 31.249 166.196 31.4624C166.196 31.809 166.456 32.069 166.976 32.2424L167.556 32.4224C168.689 32.7824 169.422 33.1957 169.756 33.6624C170.049 34.0624 170.196 34.5424 170.196 35.1024C170.196 35.9824 169.876 36.7157 169.236 37.3024C168.569 37.9157 167.702 38.2224 166.636 38.2224C165.289 38.2224 164.169 37.7424 163.276 36.7824L164.556 35.3024C165.129 35.969 165.769 36.3024 166.476 36.3024C166.822 36.3024 167.109 36.2224 167.336 36.0624C167.562 35.889 167.676 35.6557 167.676 35.3624C167.676 34.9624 167.422 34.669 166.916 34.4824L166.356 34.2824C165.489 33.9757 164.869 33.629 164.496 33.2424C164.056 32.7757 163.836 32.2224 163.836 31.5824C163.836 30.7824 164.136 30.129 164.736 29.6224C165.256 29.209 166.009 29.0024 166.996 29.0024C168.036 29.0024 168.956 29.309 169.756 29.9224ZM178.562 30.4024V29.2824H181.002V37.9424H178.562V36.8224C177.908 37.7557 177.022 38.2224 175.902 38.2224C174.595 38.2224 173.528 37.7757 172.702 36.8824C171.888 35.989 171.482 34.8957 171.482 33.6024C171.482 32.2957 171.882 31.2024 172.682 30.3224C173.482 29.4424 174.515 29.0024 175.782 29.0024C177.035 29.0024 177.962 29.469 178.562 30.4024ZM178.122 31.8624C177.668 31.3957 177.095 31.1624 176.402 31.1624C175.708 31.1624 175.135 31.3957 174.682 31.8624C174.228 32.329 174.002 32.909 174.002 33.6024C174.002 34.2957 174.228 34.8824 174.682 35.3624C175.135 35.829 175.708 36.0624 176.402 36.0624C177.095 36.0624 177.668 35.829 178.122 35.3624C178.575 34.8824 178.802 34.2957 178.802 33.6024C178.802 32.909 178.575 32.329 178.122 31.8624ZM182.208 29.2824H184.928L187.208 34.1624L189.488 29.2824H192.208L187.768 38.1224H186.648L182.208 29.2824ZM199.666 35.1624L201.906 35.5224C201.813 35.7624 201.686 36.0024 201.526 36.2424C201.379 36.469 201.146 36.7557 200.826 37.1024C200.506 37.4357 200.073 37.709 199.526 37.9224C198.979 38.1224 198.353 38.2224 197.646 38.2224C196.286 38.2224 195.179 37.8157 194.326 37.0024C193.419 36.149 192.966 35.0224 192.966 33.6224C192.966 32.2357 193.406 31.1024 194.286 30.2224C195.113 29.409 196.199 29.0024 197.546 29.0024C199.013 29.0024 200.139 29.4757 200.926 30.4224C201.619 31.249 201.966 32.3824 201.966 33.8224V34.0224H195.486C195.486 34.609 195.626 35.0957 195.906 35.4824C196.306 36.029 196.886 36.3024 197.646 36.3024C198.553 36.3024 199.226 35.9224 199.666 35.1624ZM195.566 32.4624H199.666C199.573 31.9024 199.326 31.4757 198.926 31.1824C198.539 30.8757 198.099 30.7224 197.606 30.7224C197.126 30.7224 196.686 30.8757 196.286 31.1824C195.899 31.489 195.659 31.9157 195.566 32.4624ZM211.923 37.9424V26.8424H210.003V24.6024H214.523V37.9424H211.923ZM228.05 36.4024C227.05 37.629 225.837 38.2424 224.41 38.2424C222.984 38.2424 221.764 37.629 220.75 36.4024C219.75 35.1624 219.25 33.449 219.25 31.2624C219.25 29.089 219.75 27.389 220.75 26.1624C221.764 24.9224 222.984 24.3024 224.41 24.3024C225.837 24.3024 227.05 24.9224 228.05 26.1624C229.064 27.389 229.57 29.0957 229.57 31.2824C229.57 33.4557 229.064 35.1624 228.05 36.4024ZM226.17 27.7224C225.65 26.9357 225.064 26.5424 224.41 26.5424C223.757 26.5424 223.164 26.9357 222.63 27.7224C222.11 28.4957 221.85 29.6757 221.85 31.2624C221.85 32.849 222.11 34.0357 222.63 34.8224C223.15 35.609 223.744 36.0024 224.41 36.0024C225.077 36.0024 225.67 35.609 226.19 34.8224C226.71 34.0357 226.97 32.849 226.97 31.2624C226.97 29.6757 226.704 28.4957 226.17 27.7224ZM235.566 34.4624V32.2224H240.766V34.4624H235.566ZM246.59 37.9424L250.51 33.4824C251.79 31.989 252.55 31.0624 252.79 30.7024C253.31 29.929 253.57 29.2157 253.57 28.5624C253.57 27.9624 253.377 27.4757 252.99 27.1024C252.617 26.729 252.15 26.5424 251.59 26.5424C250.95 26.5424 250.444 26.7624 250.07 27.2024C249.697 27.629 249.497 28.149 249.47 28.7624H246.79C246.844 27.4157 247.304 26.3357 248.17 25.5224C249.037 24.709 250.137 24.3024 251.47 24.3024C252.937 24.3024 254.084 24.7224 254.91 25.5624C255.75 26.4024 256.17 27.3957 256.17 28.5424C256.17 29.1824 256.024 29.8224 255.73 30.4624C255.437 31.1024 255.157 31.589 254.89 31.9224C254.624 32.2424 254.244 32.669 253.75 33.2024L251.45 35.7024H256.27V37.9424H246.59ZM266.918 36.4024C265.918 37.629 264.704 38.2424 263.278 38.2424C261.851 38.2424 260.631 37.629 259.618 36.4024C258.618 35.1624 258.118 33.449 258.118 31.2624C258.118 29.089 258.618 27.389 259.618 26.1624C260.631 24.9224 261.851 24.3024 263.278 24.3024C264.704 24.3024 265.918 24.9224 266.918 26.1624C267.931 27.389 268.438 29.0957 268.438 31.2824C268.438 33.4557 267.931 35.1624 266.918 36.4024ZM265.038 27.7224C264.518 26.9357 263.931 26.5424 263.278 26.5424C262.624 26.5424 262.031 26.9357 261.498 27.7224C260.978 28.4957 260.718 29.6757 260.718 31.2624C260.718 32.849 260.978 34.0357 261.498 34.8224C262.018 35.609 262.611 36.0024 263.278 36.0024C263.944 36.0024 264.538 35.609 265.058 34.8224C265.578 34.0357 265.838 32.849 265.838 31.2624C265.838 29.6757 265.571 28.4957 265.038 27.7224ZM270.465 25.3424C271.078 24.7424 271.898 24.4424 272.925 24.4424C273.952 24.4424 274.765 24.7424 275.365 25.3424C275.978 25.929 276.285 26.6824 276.285 27.6024C276.285 28.5224 275.978 29.2824 275.365 29.8824C274.765 30.469 273.952 30.7624 272.925 30.7624C271.898 30.7624 271.078 30.469 270.465 29.8824C269.865 29.2824 269.565 28.5224 269.565 27.6024C269.565 26.6824 269.865 25.929 270.465 25.3424ZM271.705 28.8424C272.025 29.1624 272.432 29.3224 272.925 29.3224C273.418 29.3224 273.818 29.1624 274.125 28.8424C274.445 28.5224 274.605 28.109 274.605 27.6024C274.605 27.0957 274.445 26.6824 274.125 26.3624C273.818 26.0424 273.418 25.8824 272.925 25.8824C272.432 25.8824 272.025 26.0424 271.705 26.3624C271.398 26.6824 271.245 27.0957 271.245 27.6024C271.245 28.109 271.398 28.5224 271.705 28.8424ZM272.205 37.8824L280.145 24.1624L281.205 24.7624L273.265 38.5024L272.205 37.8824ZM278.025 32.7224C278.638 32.1224 279.458 31.8224 280.485 31.8224C281.512 31.8224 282.325 32.1224 282.925 32.7224C283.538 33.309 283.845 34.0624 283.845 34.9824C283.845 35.9024 283.538 36.6624 282.925 37.2624C282.325 37.849 281.512 38.1424 280.485 38.1424C279.458 38.1424 278.638 37.849 278.025 37.2624C277.425 36.6624 277.125 35.9024 277.125 34.9824C277.125 34.0624 277.425 33.309 278.025 32.7224ZM279.265 36.2224C279.585 36.5424 279.992 36.7024 280.485 36.7024C280.978 36.7024 281.378 36.5424 281.685 36.2224C282.005 35.9024 282.165 35.489 282.165 34.9824C282.165 34.4757 282.005 34.0624 281.685 33.7424C281.378 33.4224 280.978 33.2624 280.485 33.2624C279.992 33.2624 279.585 33.4224 279.265 33.7424C278.958 34.0624 278.805 34.4757 278.805 34.9824C278.805 35.489 278.958 35.9024 279.265 36.2224ZM291.301 30.2224C292.181 29.409 293.348 29.0024 294.801 29.0024C296.254 29.0024 297.421 29.409 298.301 30.2224C299.274 31.1024 299.761 32.2357 299.761 33.6224C299.761 34.9957 299.274 36.1224 298.301 37.0024C297.421 37.8157 296.254 38.2224 294.801 38.2224C293.348 38.2224 292.181 37.8157 291.301 37.0024C290.328 36.1224 289.841 34.9957 289.841 33.6224C289.841 32.2357 290.328 31.1024 291.301 30.2224ZM293.061 35.3424C293.528 35.8224 294.108 36.0624 294.801 36.0624C295.494 36.0624 296.074 35.8224 296.541 35.3424C297.008 34.8624 297.241 34.289 297.241 33.6224C297.241 32.9424 297.008 32.3624 296.541 31.8824C296.074 31.4024 295.494 31.1624 294.801 31.1624C294.108 31.1624 293.528 31.4024 293.061 31.8824C292.594 32.3624 292.361 32.9424 292.361 33.6224C292.361 34.289 292.594 34.8624 293.061 35.3424ZM306.368 31.3624H304.128V37.9424H301.688V31.3624H300.768V29.2824H301.688V26.5024C301.688 25.089 302.068 24.069 302.828 23.4424C303.402 22.9624 304.115 22.7224 304.968 22.7224C305.475 22.7224 305.942 22.8224 306.368 23.0224V25.2424C306.048 25.0024 305.682 24.8824 305.268 24.8824C304.882 24.8824 304.588 25.029 304.388 25.3224C304.215 25.6024 304.128 26.1024 304.128 26.8224V29.2824H306.368V31.3624ZM316.276 31.3624H314.596V37.9424H312.156V31.3624H311.196V29.2824H312.156V26.3224H314.596V29.2824H316.276V31.3624ZM317.547 37.9424V22.9624H319.987V30.4024C320.653 29.469 321.547 29.0024 322.667 29.0024C323.8 29.0024 324.653 29.3557 325.227 30.0624C325.68 30.6224 325.907 31.4357 325.907 32.5024V37.9424H323.467V33.2224C323.467 32.409 323.313 31.8424 323.007 31.5224C322.727 31.229 322.347 31.0824 321.867 31.0824C321.2 31.0824 320.7 31.3357 320.367 31.8424C320.113 32.2424 319.987 32.8024 319.987 33.5224V37.9424H317.547ZM334.49 35.1624L336.73 35.5224C336.637 35.7624 336.51 36.0024 336.35 36.2424C336.204 36.469 335.97 36.7557 335.65 37.1024C335.33 37.4357 334.897 37.709 334.35 37.9224C333.804 38.1224 333.177 38.2224 332.47 38.2224C331.11 38.2224 330.004 37.8157 329.15 37.0024C328.244 36.149 327.79 35.0224 327.79 33.6224C327.79 32.2357 328.23 31.1024 329.11 30.2224C329.937 29.409 331.024 29.0024 332.37 29.0024C333.837 29.0024 334.964 29.4757 335.75 30.4224C336.444 31.249 336.79 32.3824 336.79 33.8224V34.0224H330.31C330.31 34.609 330.45 35.0957 330.73 35.4824C331.13 36.029 331.71 36.3024 332.47 36.3024C333.377 36.3024 334.05 35.9224 334.49 35.1624ZM330.39 32.4624H334.49C334.397 31.9024 334.15 31.4757 333.75 31.1824C333.364 30.8757 332.924 30.7224 332.43 30.7224C331.95 30.7224 331.51 30.8757 331.11 31.1824C330.724 31.489 330.484 31.9157 330.39 32.4624ZM125.18 54.5224V56.9224C124.633 56.4157 123.967 56.1624 123.18 56.1624C122.407 56.1624 121.807 56.4024 121.38 56.8824C120.953 57.349 120.74 57.9224 120.74 58.6024C120.74 59.309 120.973 59.8957 121.44 60.3624C121.92 60.829 122.527 61.0624 123.26 61.0624C123.98 61.0624 124.62 60.809 125.18 60.3024V62.6824C124.46 63.0424 123.713 63.2224 122.94 63.2224C121.593 63.2224 120.48 62.8024 119.6 61.9624C118.68 61.0957 118.22 59.989 118.22 58.6424C118.22 57.1757 118.72 56.0024 119.72 55.1224C120.56 54.3757 121.6 54.0024 122.84 54.0024C123.68 54.0024 124.46 54.1757 125.18 54.5224ZM128.039 55.2224C128.919 54.409 130.086 54.0024 131.539 54.0024C132.993 54.0024 134.159 54.409 135.039 55.2224C136.013 56.1024 136.499 57.2357 136.499 58.6224C136.499 59.9957 136.013 61.1224 135.039 62.0024C134.159 62.8157 132.993 63.2224 131.539 63.2224C130.086 63.2224 128.919 62.8157 128.039 62.0024C127.066 61.1224 126.579 59.9957 126.579 58.6224C126.579 57.2357 127.066 56.1024 128.039 55.2224ZM129.799 60.3424C130.266 60.8224 130.846 61.0624 131.539 61.0624C132.233 61.0624 132.813 60.8224 133.279 60.3424C133.746 59.8624 133.979 59.289 133.979 58.6224C133.979 57.9424 133.746 57.3624 133.279 56.8824C132.813 56.4024 132.233 56.1624 131.539 56.1624C130.846 56.1624 130.266 56.4024 129.799 56.8824C129.333 57.3624 129.099 57.9424 129.099 58.6224C129.099 59.289 129.333 59.8624 129.799 60.3424ZM144.307 54.9224L143.107 56.3424C142.693 55.9557 142.22 55.7624 141.687 55.7624C141.393 55.7624 141.16 55.829 140.987 55.9624C140.827 56.0824 140.747 56.249 140.747 56.4624C140.747 56.809 141.007 57.069 141.527 57.2424L142.107 57.4224C143.24 57.7824 143.973 58.1957 144.307 58.6624C144.6 59.0624 144.747 59.5424 144.747 60.1024C144.747 60.9824 144.427 61.7157 143.787 62.3024C143.12 62.9157 142.253 63.2224 141.187 63.2224C139.84 63.2224 138.72 62.7424 137.827 61.7824L139.107 60.3024C139.68 60.969 140.32 61.3024 141.027 61.3024C141.373 61.3024 141.66 61.2224 141.887 61.0624C142.113 60.889 142.227 60.6557 142.227 60.3624C142.227 59.9624 141.973 59.669 141.467 59.4824L140.907 59.2824C140.04 58.9757 139.42 58.629 139.047 58.2424C138.607 57.7757 138.387 57.2224 138.387 56.5824C138.387 55.7824 138.687 55.129 139.287 54.6224C139.807 54.209 140.56 54.0024 141.547 54.0024C142.587 54.0024 143.507 54.309 144.307 54.9224ZM150.592 56.3624H148.913V62.9424H146.473V56.3624H145.513V54.2824H146.473V51.3224H148.913V54.2824H150.592V56.3624ZM157.551 55.2224C158.431 54.409 159.598 54.0024 161.051 54.0024C162.504 54.0024 163.671 54.409 164.551 55.2224C165.524 56.1024 166.011 57.2357 166.011 58.6224C166.011 59.9957 165.524 61.1224 164.551 62.0024C163.671 62.8157 162.504 63.2224 161.051 63.2224C159.598 63.2224 158.431 62.8157 157.551 62.0024C156.578 61.1224 156.091 59.9957 156.091 58.6224C156.091 57.2357 156.578 56.1024 157.551 55.2224ZM159.311 60.3424C159.778 60.8224 160.358 61.0624 161.051 61.0624C161.744 61.0624 162.324 60.8224 162.791 60.3424C163.258 59.8624 163.491 59.289 163.491 58.6224C163.491 57.9424 163.258 57.3624 162.791 56.8824C162.324 56.4024 161.744 56.1624 161.051 56.1624C160.358 56.1624 159.778 56.4024 159.311 56.8824C158.844 57.3624 158.611 57.9424 158.611 58.6224C158.611 59.289 158.844 59.8624 159.311 60.3424ZM172.618 56.3624H170.378V62.9424H167.938V56.3624H167.018V54.2824H167.938V51.5024C167.938 50.089 168.318 49.069 169.078 48.4424C169.652 47.9624 170.365 47.7224 171.218 47.7224C171.725 47.7224 172.192 47.8224 172.618 48.0224V50.2424C172.298 50.0024 171.932 49.8824 171.518 49.8824C171.132 49.8824 170.838 50.029 170.638 50.3224C170.465 50.6024 170.378 51.1024 170.378 51.8224V54.2824H172.618V56.3624ZM178.406 62.9424V54.2824H180.846V55.2624C181.513 54.4224 182.373 54.0024 183.426 54.0024C184.719 54.0024 185.633 54.529 186.166 55.5824C186.819 54.529 187.746 54.0024 188.946 54.0024C189.959 54.0024 190.739 54.3557 191.286 55.0624C191.539 55.3957 191.699 55.7424 191.766 56.1024C191.846 56.4624 191.886 56.929 191.886 57.5024V62.9424H189.446V58.2224C189.446 57.409 189.313 56.8424 189.046 56.5224C188.806 56.229 188.473 56.0824 188.046 56.0824C187.433 56.0824 186.986 56.3357 186.706 56.8424C186.479 57.2157 186.366 57.7757 186.366 58.5224V62.9424H183.926V58.2224C183.926 57.409 183.793 56.8424 183.526 56.5224C183.286 56.229 182.953 56.0824 182.526 56.0824C181.913 56.0824 181.466 56.3357 181.186 56.8424C180.959 57.2157 180.846 57.7757 180.846 58.5224V62.9424H178.406ZM200.847 55.4024V54.2824H203.287V62.9424H200.847V61.8224C200.194 62.7557 199.307 63.2224 198.187 63.2224C196.88 63.2224 195.814 62.7757 194.987 61.8824C194.174 60.989 193.767 59.8957 193.767 58.6024C193.767 57.2957 194.167 56.2024 194.967 55.3224C195.767 54.4424 196.8 54.0024 198.067 54.0024C199.32 54.0024 200.247 54.469 200.847 55.4024ZM200.407 56.8624C199.954 56.3957 199.38 56.1624 198.687 56.1624C197.994 56.1624 197.42 56.3957 196.967 56.8624C196.514 57.329 196.287 57.909 196.287 58.6024C196.287 59.2957 196.514 59.8824 196.967 60.3624C197.42 60.829 197.994 61.0624 198.687 61.0624C199.38 61.0624 199.954 60.829 200.407 60.3624C200.86 59.8824 201.087 59.2957 201.087 58.6024C201.087 57.909 200.86 57.329 200.407 56.8624ZM209.733 56.3624H208.053V62.9424H205.613V56.3624H204.653V54.2824H205.613V51.3224H208.053V54.2824H209.733V56.3624ZM217.264 60.1624L219.504 60.5224C219.41 60.7624 219.284 61.0024 219.124 61.2424C218.977 61.469 218.744 61.7557 218.424 62.1024C218.104 62.4357 217.67 62.709 217.124 62.9224C216.577 63.1224 215.95 63.2224 215.244 63.2224C213.884 63.2224 212.777 62.8157 211.924 62.0024C211.017 61.149 210.564 60.0224 210.564 58.6224C210.564 57.2357 211.004 56.1024 211.884 55.2224C212.71 54.409 213.797 54.0024 215.144 54.0024C216.61 54.0024 217.737 54.4757 218.524 55.4224C219.217 56.249 219.564 57.3824 219.564 58.8224V59.0224H213.084C213.084 59.609 213.224 60.0957 213.504 60.4824C213.904 61.029 214.484 61.3024 215.244 61.3024C216.15 61.3024 216.824 60.9224 217.264 60.1624ZM213.164 57.4624H217.264C217.17 56.9024 216.924 56.4757 216.524 56.1824C216.137 55.8757 215.697 55.7224 215.204 55.7224C214.724 55.7224 214.284 55.8757 213.884 56.1824C213.497 56.489 213.257 56.9157 213.164 57.4624ZM221.453 62.9424V54.2824H223.893V55.5824C224.186 55.0224 224.546 54.6224 224.973 54.3824C225.373 54.129 225.853 54.0024 226.413 54.0024C226.733 54.0024 227.08 54.069 227.453 54.2024L227.133 56.4824C226.826 56.269 226.446 56.1624 225.993 56.1624C225.286 56.1624 224.746 56.3957 224.373 56.8624C224.053 57.2624 223.893 57.9024 223.893 58.7824V62.9424H221.453ZM228.66 54.2824H231.1V62.9424H228.66V54.2824ZM228.84 51.6624C228.56 51.369 228.42 51.0224 228.42 50.6224C228.42 50.2224 228.56 49.8824 228.84 49.6024C229.133 49.309 229.48 49.1624 229.88 49.1624C230.28 49.1624 230.62 49.309 230.9 49.6024C231.193 49.8824 231.34 50.2224 231.34 50.6224C231.34 51.0224 231.193 51.369 230.9 51.6624C230.62 51.9424 230.28 52.0824 229.88 52.0824C229.48 52.0824 229.133 51.9424 228.84 51.6624ZM240.066 55.4024V54.2824H242.506V62.9424H240.066V61.8224C239.412 62.7557 238.526 63.2224 237.406 63.2224C236.099 63.2224 235.032 62.7757 234.206 61.8824C233.392 60.989 232.986 59.8957 232.986 58.6024C232.986 57.2957 233.386 56.2024 234.186 55.3224C234.986 54.4424 236.019 54.0024 237.286 54.0024C238.539 54.0024 239.466 54.469 240.066 55.4024ZM239.626 56.8624C239.172 56.3957 238.599 56.1624 237.906 56.1624C237.212 56.1624 236.639 56.3957 236.186 56.8624C235.732 57.329 235.506 57.909 235.506 58.6024C235.506 59.2957 235.732 59.8824 236.186 60.3624C236.639 60.829 237.212 61.0624 237.906 61.0624C238.599 61.0624 239.172 60.829 239.626 60.3624C240.079 59.8824 240.306 59.2957 240.306 58.6024C240.306 57.909 240.079 57.329 239.626 56.8624ZM244.832 47.9624H247.272V62.9424H244.832V47.9624ZM255.518 54.9224L254.317 56.3424C253.904 55.9557 253.431 55.7624 252.898 55.7624C252.604 55.7624 252.371 55.829 252.198 55.9624C252.038 56.0824 251.958 56.249 251.958 56.4624C251.958 56.809 252.218 57.069 252.738 57.2424L253.318 57.4224C254.451 57.7824 255.184 58.1957 255.518 58.6624C255.811 59.0624 255.958 59.5424 255.958 60.1024C255.958 60.9824 255.638 61.7157 254.998 62.3024C254.331 62.9157 253.464 63.2224 252.398 63.2224C251.051 63.2224 249.931 62.7424 249.038 61.7824L250.318 60.3024C250.891 60.969 251.531 61.3024 252.238 61.3024C252.584 61.3024 252.871 61.2224 253.098 61.0624C253.324 60.889 253.438 60.6557 253.438 60.3624C253.438 59.9624 253.184 59.669 252.678 59.4824L252.118 59.2824C251.251 58.9757 250.631 58.629 250.258 58.2424C249.818 57.7757 249.598 57.2224 249.598 56.5824C249.598 55.7824 249.898 55.129 250.498 54.6224C251.018 54.209 251.771 54.0024 252.758 54.0024C253.798 54.0024 254.718 54.309 255.518 54.9224Z" fill="#E3B873"/>
</g>
<g filter="url(#filter1_d)">
<circle cx="56.5" cy="46.4424" r="36" fill="#E3B873"/>
</g>
<path d="M56.8396 53.7206C56.4614 53.7206 56.1526 54.0199 56.1526 54.3917V55.7163C56.1526 56.0881 56.4614 56.3873 56.8396 56.3873C57.2178 56.3873 57.5265 56.0881 57.5265 55.7163V54.3917C57.5265 54.0199 57.2178 53.7206 56.8396 53.7206Z" fill="white" stroke="white" stroke-width="0.1"/>
<path d="M73.5581 44.4428L73.5581 44.4427C73.1069 42.2849 72.0951 40.2508 70.6321 38.5602C69.2237 36.9326 67.4214 35.6513 65.4118 34.8437C65.0828 33.5077 64.3927 32.13 63.0386 31.0926C61.7205 30.0829 60.3931 29.8882 60.3338 29.8799L60.3338 29.8799C60.1374 29.8526 59.9377 29.9096 59.7872 30.0369C59.6366 30.1642 59.5498 30.3492 59.5498 30.5442V33.8478H57.3254C56.736 31.9337 54.9142 30.5357 52.7634 30.5357C50.5652 30.5357 48.7096 31.9956 48.1632 33.9747C45.0152 34.4005 42.1197 35.8912 39.9692 38.2047L40.0059 38.2387L39.9692 38.2047C37.7 40.6462 36.45 43.807 36.45 47.1048C36.45 54.4944 40.3839 60.5047 41.5891 62.1702C41.9705 62.6973 42.5945 63.0115 43.2582 63.0115H45.9692C47.0961 63.0115 48.015 62.1174 48.015 61.0156V60.214C48.6849 60.3117 49.3649 60.3618 50.0457 60.3618H56.1528V61.0156C56.1528 62.1174 57.0717 63.0115 58.1986 63.0115H61.1765C62.134 63.0115 62.9756 62.3491 63.1767 61.4341L63.4969 59.9776C67.673 58.976 71.0324 56.1195 72.6959 52.4129H75.1837C75.9359 52.4129 76.55 51.816 76.55 51.0795V45.78C76.55 45.4234 76.4075 45.0882 76.1493 44.8365C75.8912 44.5849 75.5483 44.4465 75.1838 44.4465H75.1837H75.1837H75.1837H75.1836H75.1836H75.1836H75.1835L73.5592 44.4467C73.5587 44.4454 73.5584 44.4441 73.5581 44.4428ZM75.1762 51.0293H75.1761V51.0708H73.2111C73.5469 50.0272 73.7538 48.9313 73.8138 47.802C73.8337 47.4307 73.5411 47.1162 73.1633 47.0971C72.7857 47.0784 72.4615 47.3611 72.4418 47.7324C72.1746 52.755 68.6861 57.0486 63.8218 58.4988L64.6936 54.5325C64.7736 54.1689 64.5358 53.8128 64.1656 53.7355C63.7961 53.658 63.4301 53.8876 63.3503 54.2508L61.8334 61.1523C61.7678 61.4509 61.4919 61.6694 61.1765 61.6694H58.1984C57.8268 61.6694 57.5266 61.3748 57.5266 61.0156V58.3658C57.5266 57.994 57.2178 57.6948 56.8396 57.6948C56.4614 57.6948 56.1527 57.994 56.1527 58.3658V59.0197H50.0455C49.3637 59.0197 48.6831 58.9637 48.0148 58.8549V54.3914C48.0148 54.0196 47.7061 53.7204 47.3279 53.7204C46.9497 53.7204 46.6409 54.0196 46.6409 54.3914V61.0156C46.6409 61.3749 46.3407 61.6695 45.9691 61.6695H43.2582C43.0355 61.6695 42.8366 61.5694 42.7111 61.3957L42.7111 61.3957C41.5641 59.8104 37.8239 54.0966 37.8239 47.1047C37.8239 44.1413 38.9469 41.301 40.9864 39.1068L40.9498 39.0728L40.9864 39.1068C42.8401 37.1124 45.3092 35.7982 48.0037 35.3561C48.0187 35.7441 48.0834 36.1276 48.195 36.4974H48.0074C47.6292 36.4974 47.3205 36.7966 47.3205 37.1684C47.3205 37.5402 47.6292 37.8395 48.0074 37.8395H57.5191C57.8974 37.8395 58.2061 37.5402 58.2061 37.1684C58.2061 36.7966 57.8974 36.4974 57.5191 36.4974H57.3315C57.4592 36.0749 57.5258 35.6344 57.5266 35.1897H59.5498V36.506C59.5498 36.8778 59.8585 37.177 60.2367 37.177C60.6149 37.177 60.9237 36.8778 60.9237 36.506V31.4319C61.5183 31.6611 62.343 32.1096 63.0288 32.9651C63.7404 33.8526 64.3056 35.182 64.3056 37.1685C64.3056 37.5403 64.6144 37.8395 64.9926 37.8395C65.3708 37.8395 65.6795 37.5403 65.6795 37.1685C65.6795 36.9306 65.6716 36.6808 65.6536 36.4229C67.1527 37.1478 68.4978 38.1728 69.5829 39.4267C70.8977 40.9462 71.8068 42.7736 72.212 44.7114C72.3426 45.3363 72.9049 45.7889 73.5487 45.7888L75.1762 45.7887V51.0293ZM52.7633 31.8778C54.6334 31.8778 56.1527 33.361 56.1527 35.1813C56.1527 35.6361 56.0552 36.0844 55.871 36.4975H49.6555C49.4714 36.0843 49.3737 35.6361 49.3737 35.1813C49.3737 33.3609 50.8931 31.8778 52.7633 31.8778Z" fill="white" stroke="white" stroke-width="0.1"/>
<path d="M64.4116 44.8828L64.4116 44.8828C64.815 43.8281 65.8808 43.1218 67.0621 43.1218C68.2433 43.1218 69.3093 43.8281 69.7125 44.8828C69.7125 44.8828 69.7125 44.8828 69.7125 44.8829L69.6658 44.9007C69.7887 45.222 69.6211 45.5797 69.2915 45.6995L64.4116 44.8828ZM64.4116 44.8828C64.2784 45.2312 64.4605 45.6175 64.8155 45.7465M64.4116 44.8828L64.8155 45.7465M64.8155 45.7465C65.17 45.8755 65.5657 45.7001 65.6986 45.3524L64.8155 45.7465ZM69.0691 45.7888C69.1488 45.7888 69.2297 45.7752 69.3086 45.7465L65.6986 45.3524C65.9011 44.8229 66.4479 44.4638 67.062 44.4638C67.6761 44.4638 68.223 44.8229 68.4255 45.3524C68.5289 45.6229 68.7913 45.7888 69.0691 45.7888Z" fill="white" stroke="white" stroke-width="0.1"/>
<path d="M55.7116 47.5181C55.0601 47.0763 54.2201 46.8056 53.4502 46.5933V43.5143C54.0451 43.5915 54.5484 43.7638 54.9047 43.9765C55.2758 44.1982 55.4733 44.4545 55.4733 44.683C55.4733 45.0548 55.7821 45.354 56.1603 45.354C56.5385 45.354 56.8472 45.0548 56.8472 44.683C56.8472 44.0274 56.4732 43.4413 55.8589 42.9981C55.254 42.5617 54.4127 42.2606 53.4502 42.1628V42.1368C53.4502 41.765 53.1414 41.4657 52.7632 41.4657C52.385 41.4657 52.0763 41.765 52.0763 42.1368V42.1628C51.1138 42.2606 50.2724 42.5617 49.6676 42.9981C49.0533 43.4413 48.6792 44.0274 48.6792 44.683C48.6792 45.6105 49.1508 46.2414 49.8149 46.6918C50.4663 47.1336 51.3064 47.4043 52.0763 47.6166V50.6955C51.4814 50.6184 50.9781 50.4461 50.6218 50.2333C50.2506 50.0117 50.0532 49.7554 50.0532 49.5269C50.0532 49.1551 49.7444 48.8559 49.3662 48.8559C48.988 48.8559 48.6792 49.1551 48.6792 49.5269C48.6792 50.1825 49.0533 50.7686 49.6676 51.2118C50.2724 51.6482 51.1138 51.9492 52.0763 52.0471V52.0731C52.0763 52.4449 52.385 52.7441 52.7632 52.7441C53.1414 52.7441 53.4502 52.4449 53.4502 52.0731V52.0471C54.4127 51.9492 55.254 51.6482 55.8589 51.2118C56.4732 50.7686 56.8472 50.1825 56.8472 49.5269C56.8472 48.5993 56.3757 47.9684 55.7116 47.5181ZM52.0763 43.5143V46.2105C51.3286 45.9782 50.8248 45.757 50.5067 45.5156C50.1827 45.2699 50.0532 45.0051 50.0532 44.683C50.0532 44.4545 50.2506 44.1982 50.6218 43.9765C50.9781 43.7638 51.4814 43.5915 52.0763 43.5143ZM54.9047 50.2334C54.5484 50.4462 54.045 50.6185 53.4502 50.6956V47.9994C54.1979 48.2317 54.7016 48.4529 55.0198 48.6943C55.3437 48.94 55.4733 49.2049 55.4733 49.527C55.4733 49.7554 55.2758 50.0117 54.9047 50.2334Z" fill="white" stroke="white" stroke-width="0.1"/>
<defs>
<filter id="filter0_d" x="108.22" y="15.7224" width="238.57" height="60.5" filterUnits="userSpaceOnUse" color-interpolation-filters="sRGB">
<feFlood flood-opacity="0" result="BackgroundImageFix"/>
<feColorMatrix in="SourceAlpha" type="matrix" values="0 0 0 0 0 0 0 0 0 0 0 0 0 0 0 0 0 0 127 0"/>
<feOffset dy="3"/>
<feGaussianBlur stdDeviation="5"/>
<feColorMatrix type="matrix" values="0 0 0 0 0.890196 0 0 0 0 0.721569 0 0 0 0 0.45098 0 0 0 0.15 0"/>
<feBlend mode="normal" in2="BackgroundImageFix" result="effect1_dropShadow"/>
<feBlend mode="normal" in="SourceGraphic" in2="effect1_dropShadow" result="shape"/>
</filter>
<filter id="filter1_d" x="0.5" y="0.442383" width="112" height="112" filterUnits="userSpaceOnUse" color-interpolation-filters="sRGB">
<feFlood flood-opacity="0" result="BackgroundImageFix"/>
<feColorMatrix in="SourceAlpha" type="matrix" values="0 0 0 0 0 0 0 0 0 0 0 0 0 0 0 0 0 0 127 0"/>
<feOffset dy="10"/>
<feGaussianBlur stdDeviation="10"/>
<feColorMatrix type="matrix" values="0 0 0 0 0.929412 0 0 0 0 0.752941 0 0 0 0 0.470588 0 0 0 0.2 0"/>
<feBlend mode="normal" in2="BackgroundImageFix" result="effect1_dropShadow"/>
<feBlend mode="normal" in="SourceGraphic" in2="effect1_dropShadow" result="shape"/>
</filter>
</defs>
</svg>
